<?xml version="1.0" encoding="UTF-8"?>
<svg id="Layer_1" xmlns="http://www.w3.org/2000/svg" version="1.1" viewBox="0 0 185.71 219.39">
  <!-- Generator: Adobe Illustrator 30.3.0, SVG Export Plug-In . SVG Version: 2.1.3 Build 182)  -->
  <g>
    <path d="M676.83-91.23l-19.98-30.39-20.41-.09.02,30.47-15.8-.11-.04-89.82,45.85.58c16.85.21,28.07,14,26.12,30.26-.07,11.85-5.67,21.84-18.41,25.95l22.83,33.04-20.19.1ZM676.86-151.35c.52-8.35-4.33-15.21-13.14-15.35l-27.27-.44v31.38s27.05-.64,27.05-.64c8.49-.2,12.86-6.84,13.37-14.94Z"/>
    <path d="M509.33-90.08c-28.1,2.28-50.55-17.32-51.93-44.03-1.37-26.53,19.14-48.83,46.59-49.28,25.81-.43,46.56,18.62,48.29,43.49,1.76,25.25-16.4,47.66-42.96,49.82ZM535.92-138.59c-.73-12.73-8.09-23.12-18.26-27.6-10.96-4.82-23.18-3.22-32.6,4.57-13.48,11.15-15.38,31.71-4.45,45.31,9.03,11.23,23.71,14.93,36.68,9.36,11.69-5.02,19.45-17.3,18.63-31.65Z"/>
    <polygon points="266.46 -129.86 223.54 -129.83 223.49 -105.74 273.57 -105.76 273.56 -91.24 207.89 -91.26 207.88 -181.08 271.8 -181.16 271.86 -167 223.52 -166.99 223.51 -143.54 266.44 -143.3 266.46 -129.86"/>
    <polygon points="401.63 -105.77 401.72 -91.24 344.17 -91.27 344.18 -181 359.86 -181.14 359.84 -105.77 401.63 -105.77"/>
    <polygon points="126.12 -181.04 143.23 -180.92 106.9 -91.32 90.37 -91.46 53.93 -181.03 71.31 -181.1 98.71 -114.74 126.12 -181.04"/>
    <rect x="52.16" y="-219.33" width="93.08" height="12.67"/>
    <polygon points="774.13 -91.31 757.02 -91.43 793.35 -181.03 809.88 -180.89 846.32 -91.32 828.94 -91.25 801.53 -157.61 774.13 -91.31"/>
    <rect x="755" y="-65.69" width="93.08" height="12.67" transform="translate(1603.09 -118.71) rotate(180)"/>
  </g>
  <g>
    <polygon points="122.18 89.08 139.07 89.2 103.2 177.66 86.88 177.53 50.91 89.09 68.06 89.02 95.12 154.54 122.18 89.08"/>
    <rect x="49.04" y="51.28" width="91.9" height="12.51"/>
  </g>
</svg>