<?xml version="1.0" encoding="UTF-8" ?>
<!DOCTYPE svg PUBLIC "-//W3C//DTD SVG 1.1//EN" "http://www.w3.org/Graphics/SVG/1.1/DTD/svg11.dtd">
<svg width="614pt" height="170pt" viewBox="0 0 614 170" version="1.1" xmlns="http://www.w3.org/2000/svg">
<g id="#1c1c1cff">
</g>
<g id="#444444ff">
<path fill="#444444" opacity="1.00" d=" M 44.03 33.01 C 66.01 33.00 88.00 32.97 109.98 33.03 C 110.04 36.01 110.03 39.00 109.97 41.99 C 87.99 42.01 66.01 42.01 44.03 41.99 C 43.97 39.00 43.97 36.01 44.03 33.01 Z" />
<path fill="#444444" opacity="1.00" d=" M 362.29 57.63 C 373.36 57.39 384.75 62.74 390.79 72.18 C 398.83 83.96 397.97 100.89 388.71 111.76 C 376.73 126.63 351.66 127.15 338.57 113.49 C 328.25 103.14 326.65 85.64 334.27 73.29 C 339.90 63.48 351.13 57.73 362.29 57.63 M 359.34 68.32 C 347.55 70.17 339.07 82.70 341.40 94.33 C 342.81 102.50 348.95 109.76 356.99 112.05 C 364.39 114.47 372.98 112.02 378.28 106.38 C 385.63 99.06 386.49 86.61 380.98 77.98 C 376.55 70.82 367.63 66.76 359.34 68.32 Z" />
<path fill="#444444" opacity="1.00" d=" M 45.15 59.25 C 49.33 59.22 53.51 59.22 57.69 59.30 C 64.10 74.58 70.25 89.97 76.75 105.21 C 83.31 90.11 89.21 74.72 95.82 59.65 C 99.78 58.66 104.08 59.48 108.17 59.28 C 100.36 79.01 92.20 98.61 84.34 118.33 C 83.73 119.78 83.02 121.19 82.32 122.59 C 78.49 122.54 74.66 122.43 70.84 122.19 C 62.07 101.30 53.67 80.24 45.15 59.25 Z" />
<path fill="#444444" opacity="1.00" d=" M 153.27 59.27 C 168.33 59.09 183.39 59.56 198.44 58.96 C 198.55 62.38 198.55 65.80 198.44 69.22 C 187.13 69.34 175.82 69.14 164.51 69.31 C 164.49 74.69 164.46 80.07 164.54 85.45 C 174.60 85.42 184.66 85.71 194.73 85.82 C 194.76 89.08 194.97 92.36 194.45 95.60 C 184.47 95.46 174.49 95.42 164.51 95.59 C 164.49 101.06 164.44 106.53 164.55 111.99 C 176.28 112.06 188.02 111.91 199.75 112.06 C 199.78 115.47 199.75 118.88 199.80 122.30 C 184.38 122.83 168.93 122.26 153.50 122.58 C 153.35 121.09 153.23 119.59 153.21 118.09 C 153.32 98.49 153.19 78.88 153.27 59.27 Z" />
<path fill="#444444" opacity="1.00" d=" M 249.06 59.24 C 252.77 59.22 256.47 59.23 260.18 59.27 C 260.35 76.83 260.19 94.39 260.25 111.95 C 269.98 112.09 279.72 111.93 289.45 112.02 C 289.54 115.50 289.54 118.98 289.45 122.46 C 275.97 122.52 262.49 122.54 249.01 122.45 C 249.03 101.38 248.92 80.31 249.06 59.24 Z" />
<path fill="#444444" opacity="1.00" d=" M 443.99 59.15 C 454.68 59.23 465.37 59.36 476.06 59.54 C 482.08 59.58 488.27 62.23 491.63 67.37 C 495.58 73.03 495.36 80.44 494.00 86.90 C 492.63 92.88 487.67 97.13 482.16 99.29 C 487.30 107.10 492.90 114.59 497.97 122.45 C 493.22 122.56 488.48 122.47 483.74 122.55 C 478.66 115.73 474.37 108.34 469.55 101.33 C 464.86 101.26 460.17 101.08 455.48 101.05 C 455.48 108.18 455.55 115.31 455.47 122.44 C 451.65 122.55 447.83 122.55 444.01 122.45 C 443.97 101.35 444.02 80.25 443.99 59.15 M 455.51 69.31 C 455.47 76.52 455.53 83.73 455.47 90.94 C 462.38 90.66 469.33 91.02 476.20 90.20 C 482.03 89.10 484.17 82.17 483.20 76.99 C 482.69 72.93 478.98 69.68 474.91 69.61 C 468.44 69.47 461.97 69.11 455.51 69.31 Z" />
<path fill="#444444" opacity="1.00" d=" M 565.27 59.28 C 569.17 59.21 573.06 59.23 576.97 59.24 C 585.80 80.21 594.23 101.36 602.76 122.46 C 598.58 122.54 594.39 122.56 590.22 122.42 C 583.95 107.20 577.67 91.98 571.37 76.78 C 570.77 77.71 570.18 78.66 569.71 79.66 C 563.79 93.92 558.00 108.24 551.97 122.45 C 547.92 122.58 543.86 122.59 539.83 122.21 C 548.15 101.17 556.77 80.25 565.27 59.28 Z" />
<path fill="#444444" opacity="1.00" d=" M 538.03 141.02 C 560.01 140.99 581.99 140.98 603.98 141.02 C 604.03 144.01 604.03 146.99 603.98 149.98 C 581.99 150.01 560.00 150.02 538.02 149.98 C 537.96 146.99 537.97 144.00 538.03 141.02 Z" />
</g>
</svg>
